<?xml version="1.0" standalone="no"?>
<svg xmlns="http://www.w3.org/2000/svg" viewBox="0 0 117.432 29.001" width="117.432" height="29.001"><g fill="#0A9EBF" color="#0A9EBF" transform="translate(0, 0) scale(0.5370371)"><svg width="50.0" height="60.0" x="0.0" y="0.0" viewBox="0 0 38 54"><path fill="currentColor" fill-rule="evenodd" d="M13.52 10.679c1.449.219 1.812-.755 2.187-1.839.948-2.744 3.142-4.462 5.424-6.088.104-.074.286-.072.43-.06.138.012.272.082.655.206-2.719 4.2-7.031 7.074-8.746 12.142-2.214-2.111-4.088-4.143-5.808-6.37 2.073-1.207 4.614-.26 5.857 2.009m13.146 7.3c2.926-2.084 7.793-.67 9.733 2.614 1.594 2.7 2.227 5.465.83 8.476-.549 1.183-.986 2.424-1.393 3.664-.441 1.346-1.814 1.84-2.5 3.08-1.107 2-2.809 3.666-4.26 5.471-.092.116-.207.215-.29.335-.861 1.248-.552 3.252-2.438 3.842.356 1.228-.856 1.756-1.181 2.683-.077.212-.189.517-.357.578-1.882.663-2.03 2.09-1.706 3.765.067.34.01.704.01 1.513-2.7-1.407-2.36-4.134-3.535-5.894C12.135 47.52 6.84 43.133 2.14 37.962c-3.652-4.019-2.138-10.221.872-12.808 2.216-1.904 5.329-2.246 7.748-.663 2.067 1.354 4.053 2.83 6.246 4.372.357-.77.623-1.523 1.029-2.188 2.187-3.59 5.238-6.28 8.63-8.696zm6.899 3.456c-.913-.349-2.067-.725-2.91-.451-1.846.598-3.692 1.365-5.071 2.893-1.077 1.193-2.099 2.469-3.332 3.473-.822.668-1.27 1.411-1.454 2.36-.246 1.274-.403 2.567-.615 3.96-1.788 1.129-1.791 1.132-3.447-.164-.288-.225-.512-.546-.817-.737-1.863-1.155-3.688-2.396-5.643-3.367-.651-.323-1.812-.209-2.46.18-1.687 1.015-2.537 4.689-1.54 6.452 1.286 2.273 3.014 4.216 5.227 5.597 2.166 1.353 4.444 2.529 6.688 3.752.362.195.81.23 1.248.346.59-1.757 1.108-3.438 1.716-5.084.955-2.581 2.23-4.955 4.134-6.999 2.255-2.421 4.39-4.959 6.536-7.479a28.18 28.18 0 0 0 2.101-2.843c.454-.693.487-1.564-.361-1.889zm-14.5-20.312c3.177-2.014 5.121-1.29 6.6 2.12.488 1.121.375 2.15-.182 3.12-.54.942-1.15 1.88-1.903 2.66-3.338 3.467-5.727 7.493-7.63 11.95-1.707.087-1.672-1.714-2.673-2.54-.364-.03-.817-.155-1.241-.092-2.34.347-3.825-.97-5.021-2.592-1.252-1.695-2.342-3.51-3.405-5.328-1.422-2.429-.01-4.704 2.885-5.034C8.98 5.105 11.2 5.36 12.987 7.25c.083.087.268.08.562.158.754-1.124 1.342-2.24 2.16-3.16 1.01-1.139 2.078-2.316 3.355-3.125z"></path></svg></g><line x1="32.408" y1="1" x2="32.408" y2="28.001" stroke="#EF5DA8" stroke-linecap="round"></line><path fill="#EF5DA8" fill-rule="nonzero" d="M6.24 12.38L6.24 12.38Q7.73 10.18 9.18 8.32Q10.63 6.46 11.95 5.11Q13.27 3.77 14.38 3.02Q15.48 2.28 16.30 2.28L16.30 2.28Q16.61 2.28 16.98 2.52Q17.35 2.76 17.68 3.14Q18 3.53 18.22 3.97Q18.43 4.42 18.43 4.82L18.43 4.82Q16.94 5.30 15.52 6.08Q14.09 6.86 12.78 7.88Q11.47 8.90 10.28 10.15Q9.10 11.40 8.14 12.82L8.14 12.82Q8.52 13.80 9.08 14.92Q9.65 16.03 10.32 17.08Q10.99 18.12 11.76 19.01Q12.53 19.90 13.32 20.42L13.32 20.42Q13.20 20.69 12.91 20.93Q12.62 21.17 12.29 21.37Q11.95 21.58 11.58 21.70Q11.21 21.82 10.90 21.82L10.90 21.82Q10.27 21.82 9.74 21.23Q9.22 20.64 8.68 19.45Q8.14 18.26 7.55 16.50Q6.96 14.74 6.24 12.38ZM2.62 21.94L2.62 21.94Q1.70 21.72 1.10 21.18Q0.50 20.64 0 19.82L0 19.82Q0.22 19.37 0.52 18.62Q0.82 17.88 1.25 16.79Q1.68 15.70 2.28 14.17Q2.88 12.65 3.67 10.61L3.67 10.61Q4.18 9.31 4.50 8.42Q4.82 7.54 5.05 6.68Q5.28 5.83 5.50 4.80Q5.71 3.77 6 2.18L6 2.18Q7.01 2.38 7.84 3.07Q8.66 3.77 9.26 4.75L9.26 4.75Q9 5.09 8.65 5.77Q8.30 6.46 7.87 7.42Q7.44 8.38 6.91 9.55Q6.38 10.73 5.81 12.05L5.81 12.05Q4.51 14.93 3.77 17.32Q3.02 19.70 2.62 21.94ZM19.78 7.82L19.78 7.82Q19.63 7.70 19.51 7.44Q19.39 7.18 19.39 6.91L19.39 6.91Q19.68 6.07 19.93 4.98Q20.18 3.89 20.18 2.54L20.18 2.54Q20.18 1.94 20.12 1.32Q20.06 0.70 19.90 0L19.90 0Q21.05 0.07 22.00 0.49Q22.94 0.91 23.26 1.51L23.26 1.51Q22.85 3.70 22.01 5.30Q21.17 6.91 19.78 7.82ZM23.28 20.83L23.28 20.83Q21.91 20.69 21.10 19.63Q20.28 18.58 20.28 16.94L20.28 16.94Q20.28 15.98 20.57 14.95Q20.86 13.92 21.38 12.95Q21.91 11.98 22.63 11.11Q23.35 10.25 24.19 9.62L24.19 9.62Q25.51 8.64 26.66 8.64L26.66 8.64Q27.43 9.05 28.18 10.34L28.18 10.34Q28.30 10.34 28.39 10.33Q28.49 10.32 28.61 10.32L28.61 10.32Q29.88 10.32 29.88 12.58L29.88 12.58Q29.88 14.09 29.39 15.44Q28.90 16.80 28.02 17.90Q27.14 19.01 25.93 19.76Q24.72 20.52 23.28 20.83ZM24.50 13.27L24.50 13.27Q24.10 13.82 23.74 14.47Q23.38 15.12 23.11 15.78Q22.85 16.44 22.70 17.05Q22.56 17.66 22.56 18.14L22.56 18.14Q22.56 18.72 22.75 19.25Q22.94 19.78 23.18 19.85L23.18 19.85Q24.26 19.61 25.16 18.95Q26.06 18.29 26.72 17.30Q27.38 16.32 27.76 15.07Q28.13 13.82 28.13 12.41L28.13 12.41Q28.13 11.78 28.06 11.42Q27.98 11.06 27.82 10.80L27.82 10.80Q26.76 11.11 25.93 11.81Q25.10 12.50 24.50 13.27ZM32.04 2.78L32.04 2.78Q32.28 2.93 32.53 3.25Q32.78 3.58 32.99 3.97Q33.19 4.37 33.31 4.78Q33.43 5.18 33.43 5.52L33.43 5.52Q32.52 6.14 31.84 6.55Q31.15 6.96 30.61 7.21Q30.07 7.46 29.66 7.57Q29.26 7.68 28.87 7.68L28.87 7.68Q28.10 7.68 27.55 7.22L27.55 7.22Q28.08 7.03 28.66 6.62Q29.23 6.22 29.82 5.64Q30.41 5.06 30.97 4.34Q31.54 3.62 32.04 2.78ZM33.86 20.83L33.86 20.83Q32.50 20.69 31.68 19.63Q30.86 18.58 30.86 16.94L30.86 16.94Q30.86 15.98 31.15 14.95Q31.44 13.92 31.97 12.95Q32.50 11.98 33.22 11.11Q33.94 10.25 34.78 9.62L34.78 9.62Q36.10 8.64 37.25 8.64L37.25 8.64Q38.02 9.05 38.76 10.34L38.76 10.34Q38.88 10.34 38.98 10.33Q39.07 10.32 39.19 10.32L39.19 10.32Q40.46 10.32 40.46 12.58L40.46 12.58Q40.46 14.09 39.97 15.44Q39.48 16.80 38.60 17.90Q37.73 19.01 36.52 19.76Q35.30 20.52 33.86 20.83ZM35.09 13.27L35.09 13.27Q34.68 13.82 34.32 14.47Q33.96 15.12 33.70 15.78Q33.43 16.44 33.29 17.05Q33.14 17.66 33.14 18.14L33.14 18.14Q33.14 18.72 33.34 19.25Q33.53 19.78 33.77 19.85L33.77 19.85Q34.85 19.61 35.75 18.95Q36.65 18.29 37.31 17.30Q37.97 16.32 38.34 15.07Q38.71 13.82 38.71 12.41L38.71 12.41Q38.71 11.78 38.64 11.42Q38.57 11.06 38.40 10.80L38.40 10.80Q37.34 11.11 36.52 11.81Q35.69 12.50 35.09 13.27ZM43.82 20.16L43.82 20.16Q44.93 19.42 45.98 18.25Q47.04 17.09 47.90 15.73Q48.77 14.38 49.37 12.91Q49.97 11.45 50.18 10.10L50.18 10.10Q50.18 9.82 49.87 9.72L49.87 9.72Q49.54 9.72 48.95 10.31Q48.36 10.90 47.65 11.81Q46.94 12.72 46.21 13.85Q45.48 14.98 44.88 16.09Q44.28 17.21 43.86 18.18Q43.44 19.15 43.39 19.75L43.39 19.75Q43.15 19.75 42.98 19.27L42.98 19.27Q42.94 19.15 42.82 19.02Q42.70 18.89 42.43 18.70L42.43 18.70Q42.31 18.60 42.19 18.47Q42.07 18.34 42.02 18.24L42.02 18.24Q41.93 18.05 41.93 17.62L41.93 17.62Q41.93 16.20 42.29 14.42Q42.65 12.65 43.24 10.80Q43.82 8.95 44.62 7.16Q45.41 5.38 46.26 3.89Q47.11 2.40 47.98 1.37Q48.84 0.34 49.61 0L49.61 0Q49.85 0.07 50.18 0.24Q50.52 0.41 50.86 0.62Q51.19 0.84 51.49 1.06Q51.79 1.27 51.94 1.44L51.94 1.44Q49.30 3.58 47.36 6.92Q45.43 10.27 44.21 14.83L44.21 14.83Q44.88 13.58 45.72 12.42Q46.56 11.26 47.39 10.37Q48.22 9.48 48.97 8.95Q49.73 8.42 50.23 8.42L50.23 8.42Q50.62 8.52 50.98 8.76Q51.34 9 51.62 9.35Q51.91 9.70 52.10 10.09Q52.30 10.49 52.34 10.92L52.34 10.92Q52.32 11.93 52.00 13.07Q51.67 14.21 51.13 15.31Q50.59 16.42 49.91 17.42Q49.22 18.43 48.47 19.19Q47.71 19.94 46.96 20.40Q46.20 20.86 45.53 20.86L45.53 20.86Q45.24 20.86 44.94 20.80Q44.64 20.74 44.39 20.63Q44.14 20.52 43.98 20.40Q43.82 20.28 43.82 20.16ZM61.54 10.06L61.54 10.06Q61.44 11.54 61.01 12.61Q60.58 13.68 59.77 14.48Q58.97 15.29 57.82 15.94Q56.66 16.58 55.13 17.18L55.13 17.18Q55.13 17.33 55.12 17.48Q55.10 17.64 55.10 17.81L55.10 17.81Q55.10 18.12 55.15 18.46Q55.20 18.79 55.32 19.08Q55.44 19.37 55.66 19.55Q55.87 19.73 56.21 19.73L56.21 19.73Q56.86 19.73 57.48 19.44Q58.10 19.15 58.67 18.73Q59.23 18.31 59.72 17.82Q60.22 17.33 60.60 16.92L60.60 16.92Q60.84 17.14 61.01 17.33L61.01 17.33Q59.93 18.77 58.64 19.72Q57.36 20.66 56.21 20.93L56.21 20.93Q54.55 20.74 53.63 19.72Q52.70 18.70 52.70 17.26L52.70 17.26Q52.70 16.27 52.98 15.25Q53.26 14.23 53.75 13.28Q54.24 12.34 54.90 11.50Q55.56 10.66 56.32 10.03Q57.07 9.41 57.88 9.05Q58.68 8.69 59.47 8.69L59.47 8.69Q60.58 8.83 61.54 10.06ZM59.88 10.85L59.88 10.85Q59.23 10.94 58.54 11.38Q57.84 11.81 57.23 12.53Q56.62 13.25 56.11 14.21Q55.61 15.17 55.32 16.27L55.32 16.27Q57.24 15.31 58.51 13.91Q59.78 12.50 59.88 10.85ZM66.53 8.35L66.53 8.35Q67.15 8.54 67.70 9.20Q68.26 9.86 68.52 10.66L68.52 10.66Q68.26 11.30 67.70 12.22Q67.15 13.13 66.60 14.08Q66.05 15.02 65.60 15.88Q65.16 16.73 65.09 17.28L65.09 17.28Q65.47 16.87 65.94 16.33Q66.41 15.79 66.85 15.25Q67.30 14.71 67.68 14.27Q68.06 13.82 68.28 13.61L68.28 13.61Q68.74 13.13 69.36 12.49Q69.98 11.86 70.67 11.29Q71.35 10.73 72.05 10.33Q72.74 9.94 73.32 9.94L73.32 9.94Q73.94 9.94 74.36 10.36Q74.78 10.78 75.02 11.23L75.02 11.23Q75.02 11.28 74.84 11.36Q74.66 11.45 74.33 11.83L74.33 11.83Q73.99 12.26 73.57 13.02Q73.15 13.78 72.76 14.65Q72.36 15.53 72.10 16.44Q71.83 17.35 71.83 18.10L71.83 18.10Q71.83 18.70 71.99 18.86Q72.14 19.03 72.43 19.03L72.43 19.03Q72.70 19.03 72.98 18.91Q73.27 18.79 73.44 18.79L73.44 18.79Q73.54 18.84 73.60 19.00Q73.66 19.15 73.66 19.27L73.66 19.27Q73.46 19.44 73.20 19.61Q72.94 19.78 72.65 19.92Q72.36 20.06 72.08 20.16Q71.81 20.26 71.59 20.26L71.59 20.26Q70.90 20.26 70.45 20.05Q70.01 19.85 69.76 19.51Q69.50 19.18 69.41 18.71Q69.31 18.24 69.31 17.71L69.31 17.71Q69.31 17.42 69.36 17.06Q69.41 16.70 69.55 16.21Q69.70 15.72 69.96 15.04Q70.22 14.35 70.63 13.39L70.63 13.39Q70.58 13.39 69.98 13.73Q69.38 14.06 68.69 14.76L68.69 14.76Q67.56 15.84 66.66 16.90Q65.76 17.95 64.82 19.25L64.82 19.25Q64.30 19.99 63.90 20.51Q63.50 21.02 63.22 21.19L63.22 21.19Q62.71 20.90 62.47 20.39Q62.23 19.87 62.11 19.32L62.11 19.32Q62.11 18.86 62.24 18.17Q62.38 17.47 62.60 16.62Q62.83 15.77 63.17 14.83Q63.50 13.90 63.91 12.96L63.91 12.96Q64.82 10.85 65.58 9.65Q66.34 8.45 66.53 8.35Z" transform="translate(42.408, 3.533)"></path></svg>