<?xml version="1.0" standalone="no"?>
<svg xmlns="http://www.w3.org/2000/svg" viewBox="0 0 103.962 120.044" width="103.962" height="120.044"><polygon fill="#EF5DA8" points="103.962,30.011 103.962,90.033 51.981,120.044 0,90.033 0,30.011 51.981,0"></polygon><path fill="white" fill-rule="nonzero" d="M7.28 11.90L7.28 11.90Q9.02 9.32 10.71 7.15Q12.40 4.98 13.94 3.42Q15.48 1.85 16.77 0.98Q18.06 0.11 19.01 0.11L19.01 0.11Q19.38 0.11 19.81 0.39Q20.24 0.67 20.62 1.12Q21 1.57 21.25 2.09Q21.50 2.60 21.50 3.08L21.50 3.08Q19.77 3.64 18.10 4.55Q16.44 5.46 14.91 6.65Q13.38 7.84 12.00 9.30Q10.61 10.75 9.49 12.40L9.49 12.40Q9.94 13.55 10.60 14.85Q11.26 16.16 12.04 17.37Q12.82 18.59 13.72 19.63Q14.62 20.66 15.54 21.28L15.54 21.28Q15.40 21.59 15.06 21.87Q14.73 22.15 14.34 22.39Q13.94 22.62 13.51 22.76Q13.08 22.90 12.71 22.90L12.71 22.90Q11.98 22.90 11.37 22.22Q10.75 21.53 10.12 20.15Q9.49 18.76 8.81 16.70Q8.12 14.64 7.28 11.90ZM3.05 23.04L3.05 23.04Q1.99 22.79 1.29 22.16Q0.59 21.53 0 20.58L0 20.58Q0.25 20.05 0.60 19.18Q0.95 18.31 1.46 17.04Q1.96 15.76 2.66 13.99Q3.36 12.21 4.28 9.83L4.28 9.83Q4.87 8.32 5.25 7.28Q5.63 6.24 5.89 5.25Q6.16 4.26 6.41 3.05Q6.66 1.85 7.00 0L7.00 0Q8.18 0.22 9.14 1.04Q10.11 1.85 10.81 3.00L10.81 3.00Q10.50 3.39 10.09 4.19Q9.69 4.98 9.18 6.10Q8.68 7.22 8.06 8.60Q7.45 9.97 6.78 11.51L6.78 11.51Q5.26 14.87 4.40 17.65Q3.53 20.44 3.05 23.04Z" transform="translate(41.229, 23.5)"></path><g fill="white" color="white" transform="translate(29.981 54.544) scale(0.8627451)"><svg width="51.0" height="51.0" x="0.0" y="0.0" viewBox="0 0 51 51"><path fill="currentColor" fill-rule="evenodd" d="M45.003 46.574c-.674.717-1.56 1.602-2.065 1.813-.295.126-.632.21-.927.042-.843-.464-.042-1.265-.042-1.265s.505-.632 1.053-1.517c1.35-1.98 1.35-4.257-1.559-1.813-4.13 3.541-8.978 5.648-10.958 6.365-.465.169-1.729.548-1.982-.042-.253-.506.885-1.011 1.35-1.18 1.39-.506 4.593-1.855 7.754-4.005.38-.252.085-.421-.295-.168-3.456 2.318-7.418 3.878-9.104 4.468-.421.169-1.517.506-1.854-.042-.338-.548.759-1.012 1.138-1.138 1.517-.548 5.352-2.066 8.683-4.258.252-.21.041-.463-.422-.21-2.614 1.813-5.395 2.95-6.828 3.456-.506.21-1.56.464-1.855-.084-.295-.506.717-.97 1.222-1.138 1.18-.421 3.414-1.391 5.648-2.782.169-.085.085-.548-.379-.253-1.56 1.011-2.908 1.602-2.993 1.644 0 0-1.011.421-1.517.084-.463-.337.295-.759.927-1.095.843-.38 9.569-4.974 8.894-11.634-.38-3.625-1.854-5.269-4.805-8.556l-8.81-8.81c-4.93 5.059-8.808 8.936-8.808 8.936-2.95 3.288-4.426 4.932-4.805 8.557-.675 6.66 8.05 11.253 8.893 11.633.632.295 1.433.758.927 1.095-.506.338-1.517-.083-1.517-.083-.127-.043-1.475-.633-2.993-1.645-.505-.295-.548.127-.379.253 2.234 1.392 4.468 2.318 5.648 2.782.506.211 1.517.633 1.222 1.138-.295.548-1.306.295-1.854.084-1.391-.505-4.173-1.643-6.828-3.455-.464-.295-.675-.043-.422.21 3.288 2.192 7.165 3.71 8.683 4.257.38.126 1.433.59 1.138 1.138-.337.548-1.433.211-1.855.042-1.644-.59-5.648-2.15-9.104-4.467-.38-.254-.674-.127-.295.168 3.161 2.15 6.322 3.499 7.755 4.004.464.169 1.602.675 1.35 1.18-.296.59-1.518.211-1.982.042-1.939-.716-6.786-2.865-10.958-6.364-2.909-2.487-2.909-.21-1.56 1.813.59.884 1.054 1.475 1.054 1.517 0 0 .8.8-.042 1.264-.295.17-.633.084-.928-.042-.505-.21-1.348-1.096-2.065-1.812-2.655-2.993-8.683-11.043-3.54-21.454 2.15-4.341 6.828-8.851 6.828-8.851l9.146-9.105L25.278 0l7.291 7.291 9.147 9.105s4.678 4.51 6.828 8.85c5.142 10.412-.885 18.462-3.54 21.328m-19.726-1.728S9.26 32.918 16.426 26.975c2.36-1.939 6.576-1.011 8.852.927 2.276-1.938 6.448-2.866 8.85-.927 7.166 5.943-8.85 17.871-8.85 17.871"></path></svg></g></svg>