<?xml version="1.0" standalone="no"?>
<svg xmlns="http://www.w3.org/2000/svg" viewBox="0 0 103.962 120.044" width="103.962" height="120.044"><polygon fill="#EF5DA8" points="103.962,30.011 103.962,90.033 51.981,120.044 0,90.033 0,30.011 51.981,0"></polygon><path fill="white" fill-rule="nonzero" d="M7.28 11.90L7.28 11.90Q9.02 9.32 10.71 7.15Q12.40 4.98 13.94 3.42Q15.48 1.85 16.77 0.98Q18.06 0.11 19.01 0.11L19.01 0.11Q19.38 0.11 19.81 0.39Q20.24 0.67 20.62 1.12Q21 1.57 21.25 2.09Q21.50 2.60 21.50 3.08L21.50 3.08Q19.77 3.64 18.10 4.55Q16.44 5.46 14.91 6.65Q13.38 7.84 12.00 9.30Q10.61 10.75 9.49 12.40L9.49 12.40Q9.94 13.55 10.60 14.85Q11.26 16.16 12.04 17.37Q12.82 18.59 13.72 19.63Q14.62 20.66 15.54 21.28L15.54 21.28Q15.40 21.59 15.06 21.87Q14.73 22.15 14.34 22.39Q13.94 22.62 13.51 22.76Q13.08 22.90 12.71 22.90L12.71 22.90Q11.98 22.90 11.37 22.22Q10.75 21.53 10.12 20.15Q9.49 18.76 8.81 16.70Q8.12 14.64 7.28 11.90ZM3.05 23.04L3.05 23.04Q1.99 22.79 1.29 22.16Q0.59 21.53 0 20.58L0 20.58Q0.25 20.05 0.60 19.18Q0.95 18.31 1.46 17.04Q1.96 15.76 2.66 13.99Q3.36 12.21 4.28 9.83L4.28 9.83Q4.87 8.32 5.25 7.28Q5.63 6.24 5.89 5.25Q6.16 4.26 6.41 3.05Q6.66 1.85 7.00 0L7.00 0Q8.18 0.22 9.14 1.04Q10.11 1.85 10.81 3.00L10.81 3.00Q10.50 3.39 10.09 4.19Q9.69 4.98 9.18 6.10Q8.68 7.22 8.06 8.60Q7.45 9.97 6.78 11.51L6.78 11.51Q5.26 14.87 4.40 17.65Q3.53 20.44 3.05 23.04Z" transform="translate(41.229, 23.5)"></path><g fill="white" color="white" transform="translate(29.981 54.544) scale(0.6875)"><svg width="64.0" height="64.0" x="0.0" y="0.0" viewBox="0 0 64 64"><g><path d="M13,47.913c0-0.674,0.147-1.317,0.392-1.913H1v2h12.007C13.007,47.971,13,47.943,13,47.913z"></path><path d="M42.864,46c0.046,0.055,0.098,0.104,0.143,0.16c0.651,0.813,1.494,1.426,2.432,1.84H63v-2H42.864z"></path><path d="M55,16.899v6.259c0.321-0.08,0.649-0.136,0.987-0.136c0.348,0,0.685,0.055,1.013,0.138V17v-1V1h-2.414l-0.293,0.293   C52.17,3.417,51,6.24,51,9.243V12C51,14.414,52.721,16.434,55,16.899z"></path><path d="M7,13.899v9.262c0.328-0.083,0.664-0.138,1.013-0.138c0.338,0,0.667,0.055,0.987,0.135v-9.259c2.279-0.465,4-2.484,4-4.899   V1h-2v7H9V1H7v7H5V1H3v8C3,11.414,4.721,13.434,7,13.899z M8,12c-1.302,0-2.402-0.839-2.816-2h5.631C10.402,11.161,9.302,12,8,12z"></path><polygon points="36.753,23 36.635,23 33.353,26.938 35.419,29.005  "></polygon><polygon points="27.247,23 28.581,29.005 30.647,26.938 27.365,23  "></polygon><polygon points="34.032,23 29.968,23 32,25.438  "></polygon><path d="M32,57c14.292,0,21.854-1.91,22.927-2.99c-0.259-0.232-1.165-0.824-4.018-1.45C50.579,53.955,49.33,55,47.835,55H25.462   v-0.004c-0.015,0-0.028,0.004-0.043,0.004h-0.073c-0.32,0-0.638-0.043-0.943-0.126l-7.687-2.097   c-0.562-0.153-1.079-0.402-1.54-0.722l0.017,0.103c-4.543,0.757-5.805,1.57-6.12,1.852C10.146,55.09,17.709,57,32,57z"></path><path d="M23.419,43c-0.17,0-0.338,0.027-0.5,0.081l-5.839,1.946C15.836,45.442,15,46.602,15,47.913   c0,1.368,0.922,2.575,2.241,2.935l7.688,2.097C25.065,52.981,25.204,53,25.346,53h0.073C26.291,53,27,52.291,27,51.419v-0.81   c0-0.243-0.058-0.488-0.167-0.708l-1.455-2.909C25.131,46.496,25,45.942,25,45.391v-0.81C25,43.709,24.291,43,23.419,43z M18,48   c-0.552,0-1-0.448-1-1c0-0.552,0.448-1,1-1s1,0.448,1,1C19,47.552,18.552,48,18,48z"></path><path d="M6.482,25.698c-0.349,0.406-0.518,0.922-0.477,1.455s0.287,1.019,0.693,1.367l6.471,5.545   C13.872,34.668,14.77,35,15.696,35c1.608,0,3.068-1.012,3.634-2.518l1.083-2.887c0.139-0.37,0.347-0.702,0.587-1.014V26h2v15.034   C23.139,41.017,23.278,41,23.419,41c1.404,0,2.61,0.82,3.197,2h9.819c1.649,0,3.223,0.479,4.565,1.348V26h2v2.575   c0.241,0.313,0.448,0.649,0.587,1.02l1.083,2.887C45.235,33.988,46.695,35,48.304,35c0.927,0,1.824-0.332,2.525-0.935l6.472-5.546   c0.406-0.348,0.652-0.833,0.693-1.367s-0.128-1.049-0.476-1.454c-0.691-0.806-2.011-0.908-2.821-0.216l-6.342,5.436l-1.022-2.727   C46.169,25.086,43.158,23,39.842,23h-1.039l-2.221,9.995L32,28.414l-4.581,4.581L25.198,23h-1.039   c-3.316,0-6.327,2.086-7.491,5.191l-1.022,2.727l-6.343-5.437C8.493,24.792,7.172,24.894,6.482,25.698z M31,31h2v2h-2V31z M31,35h2   v2h-2V35z M31,39h2v2h-2V39z"></path><path d="M34.293,6.293L35,5.585l0.707,0.708C36.808,7.394,38.271,8,39.828,8h0.222C38.574,5.042,35.525,3,32,3s-6.574,2.042-8.05,5   h6.222C31.729,8,33.192,7.394,34.293,6.293z"></path><path d="M9,56.22v1.704C9.741,58.985,17.321,61,32,61s22.259-2.015,23-3.076V56.22C49.448,58.905,34.09,59,32,59   S14.552,58.905,9,56.22z"></path><path d="M35,15c0-0.551-0.448-1-1-1s-1,0.449-1,1v1.881C34.152,16.6,35,15.852,35,15z"></path><path d="M48.026,50.685l-1.391-0.231c-2.05-0.342-3.893-1.423-5.19-3.044C40.222,45.878,38.395,45,36.435,45H27v0.391   c0,0.243,0.058,0.488,0.167,0.708l1.455,2.909C28.869,49.504,29,50.058,29,50.609v0.81c0,0.57-0.146,1.102-0.384,1.581h19.219   C48.478,53,49,52.478,49,51.835C49,51.263,48.591,50.778,48.026,50.685z M31.553,50.895l-2-1l0.895-1.789l2,1L31.553,50.895z    M35.53,45.481l0.895,1.789l-2,1l-0.895-1.789L35.53,45.481z M34.447,51.895l-0.895-1.789l2-1l0.895,1.789L34.447,51.895z    M40.553,51.895l-2-1l0.895-1.789l2,1L40.553,51.895z"></path><path d="M32,21c4.963,0,9-4.038,9-9c0-0.688-0.085-1.356-0.232-2h-0.94C38.055,10,36.372,9.415,35,8.335   C33.628,9.415,31.945,10,30.172,10h-6.94C23.085,10.644,23,11.312,23,12C23,16.962,27.037,21,32,21z M29,15   c0,0.852,0.848,1.6,2,1.881V15c0-1.654,1.346-3,3-3s3,1.346,3,3c0,2.206-2.243,4-5,4s-5-1.794-5-4H29z"></path></g></svg></g></svg>