<?xml version="1.0" standalone="no"?>
<svg xmlns="http://www.w3.org/2000/svg" viewBox="0 0 43.432 50.151" width="43.432" height="50.151"><polygon fill="none" stroke="#EF5DA8" stroke-width="3" points="41.932,13.28775 41.932,36.86325 21.716,48.651 1.5,36.86325 1.5,13.28775 21.716,1.5"></polygon><path fill="#0A9EBF" fill-rule="nonzero" d="M6.24 10.20L6.24 10.20Q7.73 7.99 9.18 6.13Q10.63 4.27 11.95 2.93Q13.27 1.58 14.38 0.84Q15.48 0.10 16.30 0.10L16.30 0.10Q16.61 0.10 16.98 0.34Q17.35 0.58 17.68 0.96Q18 1.34 18.22 1.79Q18.43 2.23 18.43 2.64L18.43 2.64Q16.94 3.12 15.52 3.90Q14.09 4.68 12.78 5.70Q11.47 6.72 10.28 7.97Q9.10 9.22 8.14 10.63L8.14 10.63Q8.52 11.62 9.08 12.73Q9.65 13.85 10.32 14.89Q10.99 15.94 11.76 16.82Q12.53 17.71 13.32 18.24L13.32 18.24Q13.20 18.50 12.91 18.74Q12.62 18.98 12.29 19.19Q11.95 19.39 11.58 19.51Q11.21 19.63 10.90 19.63L10.90 19.63Q10.27 19.63 9.74 19.04Q9.22 18.46 8.68 17.27Q8.14 16.08 7.55 14.32Q6.96 12.55 6.24 10.20ZM2.62 19.75L2.62 19.75Q1.70 19.54 1.10 19.00Q0.50 18.46 0 17.64L0 17.64Q0.22 17.18 0.52 16.44Q0.82 15.70 1.25 14.60Q1.68 13.51 2.28 11.99Q2.88 10.46 3.67 8.42L3.67 8.42Q4.18 7.13 4.50 6.24Q4.82 5.35 5.05 4.50Q5.28 3.65 5.50 2.62Q5.71 1.58 6 0L6 0Q7.01 0.19 7.84 0.89Q8.66 1.58 9.26 2.57L9.26 2.57Q9 2.90 8.65 3.59Q8.30 4.27 7.87 5.23Q7.44 6.19 6.91 7.37Q6.38 8.54 5.81 9.86L5.81 9.86Q4.51 12.74 3.77 15.13Q3.02 17.52 2.62 19.75Z" transform="translate(12.5, 15.2)"></path></svg>