<?xml version="1.0" standalone="no"?>
<svg xmlns="http://www.w3.org/2000/svg" viewBox="0 0 111.024 36" width="111.024" height="36"><g fill="#EF5DA8" color="#EF5DA8" transform="translate(0 3.9999999999999982) scale(0.2800001)"><svg width="100.0" height="100.0" x="0.0" y="0.0" viewBox="0 0 100 100"><path d="M67.058,25.458L67.058,25.458c-0.962-0.723,5.502-10.942,5.502-10.942c0.723-0.961,2.089-1.154,3.05-0.431l0,0  c0.961,0.723,1.155,2.088,0.432,3.05C76.041,17.134,68.019,26.18,67.058,25.458z"></path><path d="M60.898,20.968L60.898,20.968c-1.193-0.145-0.706-12.226-0.706-12.226c0.146-1.194,1.232-2.043,2.426-1.899l0,0  c1.195,0.146,2.044,1.231,1.898,2.426C64.517,9.269,62.093,21.113,60.898,20.968z"></path><path d="M53.538,23.534L53.538,23.534c-1.107,0.471-6.725-10.236-6.725-10.236c-0.471-1.106,0.044-2.385,1.151-2.856l0,0  c1.107-0.471,2.386,0.043,2.857,1.15C50.822,11.592,54.646,23.063,53.538,23.534z"></path><path d="M51.863,91.396c2.389-1.946,4.981-3.815,7.757-5.562c4.278-2.694,8.628-4.875,12.877-6.531  c4.09-7.503,2.167-16.488-1.985-23.222c0.959-6.834,1.804-11.92,9.634-15.086c2.904-1.174,3.575-3.746,2.099-6.239  c-1.411-2.381-6.128-2.854-9.062-1.602c-3.615,1.544-6.27,3.445-8.432,5.665v-0.002c0,0-0.008,0.009-0.023,0.026  c-0.146,0.152-0.292,0.305-0.436,0.459c-0.76,0.739-2.405,2.072-4.457,2.147c-1.801,0.066-3.374-1.265-3.938-1.807  c-8.401-9.757-18.151-18.881-25.788-24.125c-2.532-1.739-6.129-1.322-8.033,0.93c-1.905,2.253-1.396,5.49,1.137,7.229  c5.905,4.055,12.518,11.115,18.578,18.899c-0.541-0.387-1.077-0.759-1.604-1.11c-2.696-1.798-6.287-2.222-8.685-0.095  c-2.397,2.128-2.396,5.621,0.002,7.8c0.631,0.573,1.273,1.187,1.926,1.834c-1.393-0.821-3.512-0.96-5.005-0.862  c-1.436,0.096-2.833,0.643-3.907,1.638c-2.346,2.174-2.261,5.667,0.189,7.8c0.491,0.428,1.003,0.87,1.533,1.321  c-1.244-0.414-2.671-0.471-3.854-0.294c-1.413,0.21-2.744,0.865-3.711,1.939c-2.121,2.354-1.223,5.312,0.955,7.765  c1.64,1.847,3.179,3.52,4.666,5.037l-0.04,0.032C33.373,84.496,41.726,91.724,51.863,91.396z"></path></svg></g><path fill="#0A9EBF" fill-rule="nonzero" d="M6.24 12.38L6.24 12.38Q7.73 10.18 9.18 8.32Q10.63 6.46 11.95 5.11Q13.27 3.77 14.38 3.02Q15.48 2.28 16.30 2.28L16.30 2.28Q16.61 2.28 16.98 2.52Q17.35 2.76 17.68 3.14Q18 3.53 18.22 3.97Q18.43 4.42 18.43 4.82L18.43 4.82Q16.94 5.30 15.52 6.08Q14.09 6.86 12.78 7.88Q11.47 8.90 10.28 10.15Q9.10 11.40 8.14 12.82L8.14 12.82Q8.52 13.80 9.08 14.92Q9.65 16.03 10.32 17.08Q10.99 18.12 11.76 19.01Q12.53 19.90 13.32 20.42L13.32 20.42Q13.20 20.69 12.91 20.93Q12.62 21.17 12.29 21.37Q11.95 21.58 11.58 21.70Q11.21 21.82 10.90 21.82L10.90 21.82Q10.27 21.82 9.74 21.23Q9.22 20.64 8.68 19.45Q8.14 18.26 7.55 16.50Q6.96 14.74 6.24 12.38ZM2.62 21.94L2.62 21.94Q1.70 21.72 1.10 21.18Q0.50 20.64 0 19.82L0 19.82Q0.22 19.37 0.52 18.62Q0.82 17.88 1.25 16.79Q1.68 15.70 2.28 14.17Q2.88 12.65 3.67 10.61L3.67 10.61Q4.18 9.31 4.50 8.42Q4.82 7.54 5.05 6.68Q5.28 5.83 5.50 4.80Q5.71 3.77 6 2.18L6 2.18Q7.01 2.38 7.84 3.07Q8.66 3.77 9.26 4.75L9.26 4.75Q9 5.09 8.65 5.77Q8.30 6.46 7.87 7.42Q7.44 8.38 6.91 9.55Q6.38 10.73 5.81 12.05L5.81 12.05Q4.51 14.93 3.77 17.32Q3.02 19.70 2.62 21.94ZM19.78 7.82L19.78 7.82Q19.63 7.70 19.51 7.44Q19.39 7.18 19.39 6.91L19.39 6.91Q19.68 6.07 19.93 4.98Q20.18 3.89 20.18 2.54L20.18 2.54Q20.18 1.94 20.12 1.32Q20.06 0.70 19.90 0L19.90 0Q21.05 0.07 22.00 0.49Q22.94 0.91 23.26 1.51L23.26 1.51Q22.85 3.70 22.01 5.30Q21.17 6.91 19.78 7.82ZM23.28 20.83L23.28 20.83Q21.91 20.69 21.10 19.63Q20.28 18.58 20.28 16.94L20.28 16.94Q20.28 15.98 20.57 14.95Q20.86 13.92 21.38 12.95Q21.91 11.98 22.63 11.11Q23.35 10.25 24.19 9.62L24.19 9.62Q25.51 8.64 26.66 8.64L26.66 8.64Q27.43 9.05 28.18 10.34L28.18 10.34Q28.30 10.34 28.39 10.33Q28.49 10.32 28.61 10.32L28.61 10.32Q29.88 10.32 29.88 12.58L29.88 12.58Q29.88 14.09 29.39 15.44Q28.90 16.80 28.02 17.90Q27.14 19.01 25.93 19.76Q24.72 20.52 23.28 20.83ZM24.50 13.27L24.50 13.27Q24.10 13.82 23.74 14.47Q23.38 15.12 23.11 15.78Q22.85 16.44 22.70 17.05Q22.56 17.66 22.56 18.14L22.56 18.14Q22.56 18.72 22.75 19.25Q22.94 19.78 23.18 19.85L23.18 19.85Q24.26 19.61 25.16 18.95Q26.06 18.29 26.72 17.30Q27.38 16.32 27.76 15.07Q28.13 13.82 28.13 12.41L28.13 12.41Q28.13 11.78 28.06 11.42Q27.98 11.06 27.82 10.80L27.82 10.80Q26.76 11.11 25.93 11.81Q25.10 12.50 24.50 13.27ZM32.04 2.78L32.04 2.78Q32.28 2.93 32.53 3.25Q32.78 3.58 32.99 3.97Q33.19 4.37 33.31 4.78Q33.43 5.18 33.43 5.52L33.43 5.52Q32.52 6.14 31.84 6.55Q31.15 6.96 30.61 7.21Q30.07 7.46 29.66 7.57Q29.26 7.68 28.87 7.68L28.87 7.68Q28.10 7.68 27.55 7.22L27.55 7.22Q28.08 7.03 28.66 6.62Q29.23 6.22 29.82 5.64Q30.41 5.06 30.97 4.34Q31.54 3.62 32.04 2.78ZM33.86 20.83L33.86 20.83Q32.50 20.69 31.68 19.63Q30.86 18.58 30.86 16.94L30.86 16.94Q30.86 15.98 31.15 14.95Q31.44 13.92 31.97 12.95Q32.50 11.98 33.22 11.11Q33.94 10.25 34.78 9.62L34.78 9.62Q36.10 8.64 37.25 8.64L37.25 8.64Q38.02 9.05 38.76 10.34L38.76 10.34Q38.88 10.34 38.98 10.33Q39.07 10.32 39.19 10.32L39.19 10.32Q40.46 10.32 40.46 12.58L40.46 12.58Q40.46 14.09 39.97 15.44Q39.48 16.80 38.60 17.90Q37.73 19.01 36.52 19.76Q35.30 20.52 33.86 20.83ZM35.09 13.27L35.09 13.27Q34.68 13.82 34.32 14.47Q33.96 15.12 33.70 15.78Q33.43 16.44 33.29 17.05Q33.14 17.66 33.14 18.14L33.14 18.14Q33.14 18.72 33.34 19.25Q33.53 19.78 33.77 19.85L33.77 19.85Q34.85 19.61 35.75 18.95Q36.65 18.29 37.31 17.30Q37.97 16.32 38.34 15.07Q38.71 13.82 38.71 12.41L38.71 12.41Q38.71 11.78 38.64 11.42Q38.57 11.06 38.40 10.80L38.40 10.80Q37.34 11.11 36.52 11.81Q35.69 12.50 35.09 13.27ZM43.82 20.16L43.82 20.16Q44.93 19.42 45.98 18.25Q47.04 17.09 47.90 15.73Q48.77 14.38 49.37 12.91Q49.97 11.45 50.18 10.10L50.18 10.10Q50.18 9.82 49.87 9.72L49.87 9.72Q49.54 9.72 48.95 10.31Q48.36 10.90 47.65 11.81Q46.94 12.72 46.21 13.85Q45.48 14.98 44.88 16.09Q44.28 17.21 43.86 18.18Q43.44 19.15 43.39 19.75L43.39 19.75Q43.15 19.75 42.98 19.27L42.98 19.27Q42.94 19.15 42.82 19.02Q42.70 18.89 42.43 18.70L42.43 18.70Q42.31 18.60 42.19 18.47Q42.07 18.34 42.02 18.24L42.02 18.24Q41.93 18.05 41.93 17.62L41.93 17.62Q41.93 16.20 42.29 14.42Q42.65 12.65 43.24 10.80Q43.82 8.95 44.62 7.16Q45.41 5.38 46.26 3.89Q47.11 2.40 47.98 1.37Q48.84 0.34 49.61 0L49.61 0Q49.85 0.07 50.18 0.24Q50.52 0.41 50.86 0.62Q51.19 0.84 51.49 1.06Q51.79 1.27 51.94 1.44L51.94 1.44Q49.30 3.58 47.36 6.92Q45.43 10.27 44.21 14.83L44.21 14.83Q44.88 13.58 45.72 12.42Q46.56 11.26 47.39 10.37Q48.22 9.48 48.97 8.95Q49.73 8.42 50.23 8.42L50.23 8.42Q50.62 8.52 50.98 8.76Q51.34 9 51.62 9.35Q51.91 9.70 52.10 10.09Q52.30 10.49 52.34 10.92L52.34 10.92Q52.32 11.93 52.00 13.07Q51.67 14.21 51.13 15.31Q50.59 16.42 49.91 17.42Q49.22 18.43 48.47 19.19Q47.71 19.94 46.96 20.40Q46.20 20.86 45.53 20.86L45.53 20.86Q45.24 20.86 44.94 20.80Q44.64 20.74 44.39 20.63Q44.14 20.52 43.98 20.40Q43.82 20.28 43.82 20.16ZM61.54 10.06L61.54 10.06Q61.44 11.54 61.01 12.61Q60.58 13.68 59.77 14.48Q58.97 15.29 57.82 15.94Q56.66 16.58 55.13 17.18L55.13 17.18Q55.13 17.33 55.12 17.48Q55.10 17.64 55.10 17.81L55.10 17.81Q55.10 18.12 55.15 18.46Q55.20 18.79 55.32 19.08Q55.44 19.37 55.66 19.55Q55.87 19.73 56.21 19.73L56.21 19.73Q56.86 19.73 57.48 19.44Q58.10 19.15 58.67 18.73Q59.23 18.31 59.72 17.82Q60.22 17.33 60.60 16.92L60.60 16.92Q60.84 17.14 61.01 17.33L61.01 17.33Q59.93 18.77 58.64 19.72Q57.36 20.66 56.21 20.93L56.21 20.93Q54.55 20.74 53.63 19.72Q52.70 18.70 52.70 17.26L52.70 17.26Q52.70 16.27 52.98 15.25Q53.26 14.23 53.75 13.28Q54.24 12.34 54.90 11.50Q55.56 10.66 56.32 10.03Q57.07 9.41 57.88 9.05Q58.68 8.69 59.47 8.69L59.47 8.69Q60.58 8.83 61.54 10.06ZM59.88 10.85L59.88 10.85Q59.23 10.94 58.54 11.38Q57.84 11.81 57.23 12.53Q56.62 13.25 56.11 14.21Q55.61 15.17 55.32 16.27L55.32 16.27Q57.24 15.31 58.51 13.91Q59.78 12.50 59.88 10.85ZM66.53 8.35L66.53 8.35Q67.15 8.54 67.70 9.20Q68.26 9.86 68.52 10.66L68.52 10.66Q68.26 11.30 67.70 12.22Q67.15 13.13 66.60 14.08Q66.05 15.02 65.60 15.88Q65.16 16.73 65.09 17.28L65.09 17.28Q65.47 16.87 65.94 16.33Q66.41 15.79 66.85 15.25Q67.30 14.71 67.68 14.27Q68.06 13.82 68.28 13.61L68.28 13.61Q68.74 13.13 69.36 12.49Q69.98 11.86 70.67 11.29Q71.35 10.73 72.05 10.33Q72.74 9.94 73.32 9.94L73.32 9.94Q73.94 9.94 74.36 10.36Q74.78 10.78 75.02 11.23L75.02 11.23Q75.02 11.28 74.84 11.36Q74.66 11.45 74.33 11.83L74.33 11.83Q73.99 12.26 73.57 13.02Q73.15 13.78 72.76 14.65Q72.36 15.53 72.10 16.44Q71.83 17.35 71.83 18.10L71.83 18.10Q71.83 18.70 71.99 18.86Q72.14 19.03 72.43 19.03L72.43 19.03Q72.70 19.03 72.98 18.91Q73.27 18.79 73.44 18.79L73.44 18.79Q73.54 18.84 73.60 19.00Q73.66 19.15 73.66 19.27L73.66 19.27Q73.46 19.44 73.20 19.61Q72.94 19.78 72.65 19.92Q72.36 20.06 72.08 20.16Q71.81 20.26 71.59 20.26L71.59 20.26Q70.90 20.26 70.45 20.05Q70.01 19.85 69.76 19.51Q69.50 19.18 69.41 18.71Q69.31 18.24 69.31 17.71L69.31 17.71Q69.31 17.42 69.36 17.06Q69.41 16.70 69.55 16.21Q69.70 15.72 69.96 15.04Q70.22 14.35 70.63 13.39L70.63 13.39Q70.58 13.39 69.98 13.73Q69.38 14.06 68.69 14.76L68.69 14.76Q67.56 15.84 66.66 16.90Q65.76 17.95 64.82 19.25L64.82 19.25Q64.30 19.99 63.90 20.51Q63.50 21.02 63.22 21.19L63.22 21.19Q62.71 20.90 62.47 20.39Q62.23 19.87 62.11 19.32L62.11 19.32Q62.11 18.86 62.24 18.17Q62.38 17.47 62.60 16.62Q62.83 15.77 63.17 14.83Q63.50 13.90 63.91 12.96L63.91 12.96Q64.82 10.85 65.58 9.65Q66.34 8.45 66.53 8.35Z" transform="translate(36, 7.032)"></path></svg>