<?xml version="1.0" standalone="no"?>
<svg xmlns="http://www.w3.org/2000/svg" viewBox="0 0 101.364 117.044" width="101.364" height="117.044"><polygon fill="#EF5DA8" points="101.364,29.261 101.364,87.783 50.682,117.044 0,87.783 0,29.261 50.682,0"></polygon><path fill="white" fill-rule="nonzero" d="M7.28 11.90L7.28 11.90Q9.02 9.32 10.71 7.15Q12.40 4.98 13.94 3.42Q15.48 1.85 16.77 0.98Q18.06 0.11 19.01 0.11L19.01 0.11Q19.38 0.11 19.81 0.39Q20.24 0.67 20.62 1.12Q21 1.57 21.25 2.09Q21.50 2.60 21.50 3.08L21.50 3.08Q19.77 3.64 18.10 4.55Q16.44 5.46 14.91 6.65Q13.38 7.84 12.00 9.30Q10.61 10.75 9.49 12.40L9.49 12.40Q9.94 13.55 10.60 14.85Q11.26 16.16 12.04 17.37Q12.82 18.59 13.72 19.63Q14.62 20.66 15.54 21.28L15.54 21.28Q15.40 21.59 15.06 21.87Q14.73 22.15 14.34 22.39Q13.94 22.62 13.51 22.76Q13.08 22.90 12.71 22.90L12.71 22.90Q11.98 22.90 11.37 22.22Q10.75 21.53 10.12 20.15Q9.49 18.76 8.81 16.70Q8.12 14.64 7.28 11.90ZM3.05 23.04L3.05 23.04Q1.99 22.79 1.29 22.16Q0.59 21.53 0 20.58L0 20.58Q0.25 20.05 0.60 19.18Q0.95 18.31 1.46 17.04Q1.96 15.76 2.66 13.99Q3.36 12.21 4.28 9.83L4.28 9.83Q4.87 8.32 5.25 7.28Q5.63 6.24 5.89 5.25Q6.16 4.26 6.41 3.05Q6.66 1.85 7.00 0L7.00 0Q8.18 0.22 9.14 1.04Q10.11 1.85 10.81 3.00L10.81 3.00Q10.50 3.39 10.09 4.19Q9.69 4.98 9.18 6.10Q8.68 7.22 8.06 8.60Q7.45 9.97 6.78 11.51L6.78 11.51Q5.26 14.87 4.40 17.65Q3.53 20.44 3.05 23.04Z" transform="translate(39.93, 23.5)"></path><g fill="white" color="white" transform="translate(28.682000000000002 54.544) scale(1)"><svg width="44.0" height="41.0" x="0.0" y="0.0" viewBox="0 0 44 41"><path fill="currentColor" fill-rule="evenodd" d="M22 10.397c-1.481 2.303-2.389 4.768-2.445 6.76-.026.929.341 1.9.958 2.535.877.9 2.1.9 2.974-.001.618-.635.984-1.606.958-2.534-.056-1.992-.964-4.457-2.445-6.76zM11.407 3.259C5.4 3.26 3.26 7.89 3.26 12.222c0 8.2 12.733 19.513 18.741 24.049 6.008-4.536 18.74-15.85 18.74-24.049 0-4.333-2.14-8.963-8.147-8.963-2.847 0-5.892 1.598-8.496 4.426 2.195 3.062 3.524 6.49 3.606 9.38.051 1.804-.651 3.635-1.878 4.898C24.78 23.037 23.422 23.63 22 23.63c-1.422 0-2.78-.592-3.823-1.666-1.228-1.263-1.93-3.094-1.88-4.899.082-2.89 1.411-6.318 3.606-9.38-2.604-2.828-5.649-4.426-8.496-4.426zM22 40.305l-.952-.686C20.188 39 0 24.325 0 12.222 0 4.912 4.584 0 11.407 0 15.05 0 18.833 1.859 22 5.158 25.167 1.858 28.949 0 32.593 0 39.416 0 44 4.912 44 12.222 44 24.325 23.812 39 22.953 39.62l-.953.686z"></path></svg></g></svg>