<?xml version="1.0" standalone="no"?>
<svg xmlns="http://www.w3.org/2000/svg" viewBox="0 0 100.498 116.045" width="100.498" height="116.045"><polygon fill="#EF5DA8" points="100.498,29.01125 100.498,87.03375 50.249,116.045 0,87.03375 0,29.01125 50.249,0"></polygon><path fill="white" fill-rule="nonzero" d="M7.28 11.90L7.28 11.90Q9.02 9.32 10.71 7.15Q12.40 4.98 13.94 3.42Q15.48 1.85 16.77 0.98Q18.06 0.11 19.01 0.11L19.01 0.11Q19.38 0.11 19.81 0.39Q20.24 0.67 20.62 1.12Q21 1.57 21.25 2.09Q21.50 2.60 21.50 3.08L21.50 3.08Q19.77 3.64 18.10 4.55Q16.44 5.46 14.91 6.65Q13.38 7.84 12.00 9.30Q10.61 10.75 9.49 12.40L9.49 12.40Q9.94 13.55 10.60 14.85Q11.26 16.16 12.04 17.37Q12.82 18.59 13.72 19.63Q14.62 20.66 15.54 21.28L15.54 21.28Q15.40 21.59 15.06 21.87Q14.73 22.15 14.34 22.39Q13.94 22.62 13.51 22.76Q13.08 22.90 12.71 22.90L12.71 22.90Q11.98 22.90 11.37 22.22Q10.75 21.53 10.12 20.15Q9.49 18.76 8.81 16.70Q8.12 14.64 7.28 11.90ZM3.05 23.04L3.05 23.04Q1.99 22.79 1.29 22.16Q0.59 21.53 0 20.58L0 20.58Q0.25 20.05 0.60 19.18Q0.95 18.31 1.46 17.04Q1.96 15.76 2.66 13.99Q3.36 12.21 4.28 9.83L4.28 9.83Q4.87 8.32 5.25 7.28Q5.63 6.24 5.89 5.25Q6.16 4.26 6.41 3.05Q6.66 1.85 7.00 0L7.00 0Q8.18 0.22 9.14 1.04Q10.11 1.85 10.81 3.00L10.81 3.00Q10.50 3.39 10.09 4.19Q9.69 4.98 9.18 6.10Q8.68 7.22 8.06 8.60Q7.45 9.97 6.78 11.51L6.78 11.51Q5.26 14.87 4.40 17.65Q3.53 20.44 3.05 23.04Z" transform="translate(39.497, 23.500500000000002)"></path><g fill="white" color="white" transform="translate(36.17492592592593 54.5445) scale(0.7407408)"><svg width="38.0" height="54.0" x="0.0" y="0.0" viewBox="0 0 38 54"><path fill="currentColor" fill-rule="evenodd" d="M13.52 10.679c1.449.219 1.812-.755 2.187-1.839.948-2.744 3.142-4.462 5.424-6.088.104-.074.286-.072.43-.06.138.012.272.082.655.206-2.719 4.2-7.031 7.074-8.746 12.142-2.214-2.111-4.088-4.143-5.808-6.37 2.073-1.207 4.614-.26 5.857 2.009m13.146 7.3c2.926-2.084 7.793-.67 9.733 2.614 1.594 2.7 2.227 5.465.83 8.476-.549 1.183-.986 2.424-1.393 3.664-.441 1.346-1.814 1.84-2.5 3.08-1.107 2-2.809 3.666-4.26 5.471-.092.116-.207.215-.29.335-.861 1.248-.552 3.252-2.438 3.842.356 1.228-.856 1.756-1.181 2.683-.077.212-.189.517-.357.578-1.882.663-2.03 2.09-1.706 3.765.067.34.01.704.01 1.513-2.7-1.407-2.36-4.134-3.535-5.894C12.135 47.52 6.84 43.133 2.14 37.962c-3.652-4.019-2.138-10.221.872-12.808 2.216-1.904 5.329-2.246 7.748-.663 2.067 1.354 4.053 2.83 6.246 4.372.357-.77.623-1.523 1.029-2.188 2.187-3.59 5.238-6.28 8.63-8.696zm6.899 3.456c-.913-.349-2.067-.725-2.91-.451-1.846.598-3.692 1.365-5.071 2.893-1.077 1.193-2.099 2.469-3.332 3.473-.822.668-1.27 1.411-1.454 2.36-.246 1.274-.403 2.567-.615 3.96-1.788 1.129-1.791 1.132-3.447-.164-.288-.225-.512-.546-.817-.737-1.863-1.155-3.688-2.396-5.643-3.367-.651-.323-1.812-.209-2.46.18-1.687 1.015-2.537 4.689-1.54 6.452 1.286 2.273 3.014 4.216 5.227 5.597 2.166 1.353 4.444 2.529 6.688 3.752.362.195.81.23 1.248.346.59-1.757 1.108-3.438 1.716-5.084.955-2.581 2.23-4.955 4.134-6.999 2.255-2.421 4.39-4.959 6.536-7.479a28.18 28.18 0 0 0 2.101-2.843c.454-.693.487-1.564-.361-1.889zm-14.5-20.312c3.177-2.014 5.121-1.29 6.6 2.12.488 1.121.375 2.15-.182 3.12-.54.942-1.15 1.88-1.903 2.66-3.338 3.467-5.727 7.493-7.63 11.95-1.707.087-1.672-1.714-2.673-2.54-.364-.03-.817-.155-1.241-.092-2.34.347-3.825-.97-5.021-2.592-1.252-1.695-2.342-3.51-3.405-5.328-1.422-2.429-.01-4.704 2.885-5.034C8.98 5.105 11.2 5.36 12.987 7.25c.083.087.268.08.562.158.754-1.124 1.342-2.24 2.16-3.16 1.01-1.139 2.078-2.316 3.355-3.125z"></path></svg></g></svg>